<svg id="Layer_1" data-name="Layer 1" xmlns="http://www.w3.org/2000/svg" viewBox="0 0 841.89 595.28"><defs><style>.cls-1{fill:#075f89;}.cls-2{fill:#00b8d2;}</style></defs><path class="cls-1" d="M387.48,205.74a1.35,1.35,0,0,1,0,1.1,1.4,1.4,0,0,1-.71.84,1.27,1.27,0,0,1-1.06,0,1.44,1.44,0,0,1-.81-.72q-1.1-2.2-5-3.55-8.29-2.88-27.69-1.19a345.14,345.14,0,0,0-45.44,7.61q-9.72,2.2-19.52,4.74a577.38,577.38,0,0,0-4.57,70.08q3,16.49,4.23,44.13.67,15.38.59,28.48c-.06,2.48-.11,4.6-.17,6.34s-.13,3.08-.21,4a21.87,21.87,0,0,1-.3,2.2,9.13,9.13,0,0,1-.25,1.05.86.86,0,0,1-.34.38,1.39,1.39,0,0,1-1,.43,1.52,1.52,0,0,1-.51-.09,1.67,1.67,0,0,1-1-1,29,29,0,0,1-.72-4.86q-.42-4.11-.76-12.81c-.17-2.88-.4-7.38-.68-13.53q-1.77-34.06-1.69-54.61a66.63,66.63,0,0,0-3.21-11.92,1.52,1.52,0,0,1,0-1.05,1.27,1.27,0,0,1,.76-.76,1.49,1.49,0,0,1,1.1,0,1.39,1.39,0,0,1,.81.8,17.48,17.48,0,0,1,.59,1.77,572.17,572.17,0,0,1,4.31-58.16q-39.83,10.83-64.67,22.91a1.65,1.65,0,0,1-1.15.09,1.32,1.32,0,0,1-.8-.72,1.36,1.36,0,0,1,0-1.1,1.39,1.39,0,0,1,.72-.8q25.44-12.43,66.36-23.42c.11-1,.22-1.94.34-2.79a1.46,1.46,0,0,1,.55-1,1.3,1.3,0,0,1,1-.3,1.89,1.89,0,0,1,.72.3,1.18,1.18,0,0,1,.43.59,2.36,2.36,0,0,1,.12.72c-.11.62-.2,1.15-.25,1.6q9.3-2.44,18.51-4.48Q333,201,352.57,199.36t28.32,1.39Q385.87,202.54,387.48,205.74Zm-103,134.58q-.34-14.37-1.27-27.22.33,9.3,1.18,26.12a5.57,5.57,0,0,0,0,.64C284.5,340.11,284.52,340.27,284.52,340.32Z"/><path class="cls-1" d="M318.8,288.29a1.33,1.33,0,0,1,.84.63,1.36,1.36,0,0,1,.13,1.1,1.31,1.31,0,0,1-.68.85q-3.63,2.11-10.57,3.21a27.6,27.6,0,0,0-5.15,1.23,4.4,4.4,0,0,0-2.37,2.07c-1,1.86-1.92,6.51-2.7,13.95a47.71,47.71,0,0,1-.81,5.2,1.37,1.37,0,0,1-1.48,1.05,1.32,1.32,0,0,1-1.1-.55,2.92,2.92,0,0,1-.55-1.1c-.08-.36-.21-1-.38-1.81a74.82,74.82,0,0,1-.38-11.5q.13-8.88,1-16.32a1.21,1.21,0,0,1,.46-1,1.31,1.31,0,0,1,1.06-.29,1.46,1.46,0,0,1,1,.55,1.3,1.3,0,0,1,.29,1.05,164.9,164.9,0,0,0-.92,16.66,25,25,0,0,1,2-7.19,8.19,8.19,0,0,1,1.65-2.16,7,7,0,0,1,2.45-1.39,21,21,0,0,1,2.5-.72c.68-.14,1.66-.32,3-.55a29.81,29.81,0,0,0,9.72-2.87A1.56,1.56,0,0,1,318.8,288.29Z"/><path class="cls-1" d="M349.69,292a1.42,1.42,0,0,1,1.1.21,1.28,1.28,0,0,1,.59.93,1.5,1.5,0,0,1-.17,1,32.59,32.59,0,0,1-8.58,9.13c-2.9,1.91-5.53,2.48-7.9,1.69q-4.91-1.69-5.66-10.15c-.23.62-.57,1.47-1,2.54q-4.4,10.9-8.11,10.9h-.17q-2.2-.07-3.13-3.21a18.25,18.25,0,0,1,.13-8.83q1.14-5.21,4.18-7.32,3.3-2.28,7.52.26a4,4,0,0,1,1.06-1.4,1.76,1.76,0,0,1,1.14-.21c.9.23,1.33.9,1.27,2a30.48,30.48,0,0,0,.09,6.13,11.32,11.32,0,0,0,1.05,3.89,7.91,7.91,0,0,0,1.31,1.86,3.93,3.93,0,0,0,1.27.8c1.74.56,3.85-.13,6.3-2.07a34.94,34.94,0,0,0,6.89-7.57A1.17,1.17,0,0,1,349.69,292Zm-24.26,4.35q1.19-3,1.86-4.56a5.69,5.69,0,0,0-3-1.1A2.94,2.94,0,0,0,323,291a6.32,6.32,0,0,0-2.75,3.68,20,20,0,0,0-1.22,5.95c-.06,2.65.25,4.26.93,4.82a3.9,3.9,0,0,0,.8-.59,16.67,16.67,0,0,0,1.82-2.66A45.11,45.11,0,0,0,325.43,296.36Z"/><path class="cls-1" d="M377.25,292.09a1.56,1.56,0,0,1,1.1.17,1.29,1.29,0,0,1,.63.89,1.35,1.35,0,0,1-.21,1.1,30.94,30.94,0,0,1-4.27,5.58,15.91,15.91,0,0,1-4.22,3.25,16.35,16.35,0,0,1-3.47,1.31,9.64,9.64,0,0,1-2.83.26,10.29,10.29,0,0,1-3.21-.85,90.54,90.54,0,0,1-3.64,10.32q-2.28,5.14-5,5.15A3,3,0,0,1,351,319q-3.88-1.51-4.82-12.77-.84-10.81,2-18.42a1.27,1.27,0,0,1,.72-.77,1.4,1.4,0,0,1,1.1,0,1.45,1.45,0,0,1,.8.76,1.34,1.34,0,0,1,0,1.14A33.11,33.11,0,0,0,348.85,300a47.76,47.76,0,0,0,.84,11.2q1,4.69,2.37,5.2c.05.05.18,0,.38-.13a5.2,5.2,0,0,0,.89-1.06,11.86,11.86,0,0,0,1.18-2.28,71.5,71.5,0,0,0,3.72-10.82,8.4,8.4,0,0,1-1.61-2.2,7.83,7.83,0,0,1-.5-4.18,5.67,5.67,0,0,1,1.52-3.17,2.44,2.44,0,0,1,2.79-.76q1.77.68,1.77,4.23a22.08,22.08,0,0,1-.76,5,6.3,6.3,0,0,0,2.71.76,6.94,6.94,0,0,0,2.28-.21,12.24,12.24,0,0,0,2.79-1.14,13.63,13.63,0,0,0,3.46-2.83,33.47,33.47,0,0,0,3.72-4.86A1.18,1.18,0,0,1,377.25,292.09Zm-18.18,6.22a12.7,12.7,0,0,0,.26-2.28v-.93A3.79,3.79,0,0,0,359.07,298.31Z"/><path class="cls-1" d="M398,292a1.42,1.42,0,0,1,1.06.17,1.47,1.47,0,0,1,.68.89,1.3,1.3,0,0,1-.17,1.1,45.79,45.79,0,0,1-9.43,11.37q-5,4.18-9.26,4.18a6.53,6.53,0,0,1-2.78-.59c-2.49-1.13-3.88-3.52-4.19-7.19s.46-8.25,2.33-13.78a1.27,1.27,0,0,1,.71-.84,1.51,1.51,0,0,1,1.1-.09,1.27,1.27,0,0,1,.8.72,1.41,1.41,0,0,1,.09,1.06,41,41,0,0,0-2.11,9.21,14.58,14.58,0,0,0,.33,5.79,4.22,4.22,0,0,0,2.12,2.58q2.79,1.28,7.44-2,5.49-3.8,10.39-11.92A1.47,1.47,0,0,1,398,292ZM382.41,279.2c0,1-.6,1.55-2,1.78s-1.89-.09-1.94-.76a1.81,1.81,0,0,1,.08-.51,2.27,2.27,0,0,1,1.31-1.27,3.2,3.2,0,0,1,1.9.34.79.79,0,0,1,.26.08A.52.52,0,0,1,382.41,279.2Z"/><path class="cls-1" d="M423,292a1.27,1.27,0,0,1,1,.42,1.43,1.43,0,0,1,.38,1,1.53,1.53,0,0,1-.34,1,74.61,74.61,0,0,1-15.73,11.59,9.45,9.45,0,0,1-.93,8.79,13.58,13.58,0,0,1-5.7,4.77,16.35,16.35,0,0,1-7,1.74,9.16,9.16,0,0,1-1.77-.17c-1.86-.4-2.93-1.3-3.21-2.71q-.68-3.88,8.37-9.72,2.19-1.35,6.59-3.89c-.28-.5-.59-1-.93-1.52A50.12,50.12,0,0,0,399.4,298c-1-1.07-1.67-1.89-2.12-2.45a17.7,17.7,0,0,1-1.52-2.37,5.79,5.79,0,0,1-.84-2.75,11.06,11.06,0,0,1,.5-2.95,14.23,14.23,0,0,1,1.86-3.77,26.55,26.55,0,0,1,4.32-4.6c1.69-1.44,3.12-2.1,4.31-2a1.91,1.91,0,0,1,1.69,1.18,3.35,3.35,0,0,1,.21.81,5.73,5.73,0,0,1-.21,1.52,10.33,10.33,0,0,1-1.06,2.62c-.54,1-1.39,2.39-2.58,4.23s-2.68,3.93-4.48,6.29c.4.45,1.07,1.24,2,2.37a55.75,55.75,0,0,1,4.57,5.5c.39.56.76,1.12,1.09,1.69A70.57,70.57,0,0,0,422,292.39,1.38,1.38,0,0,1,423,292Zm-18,21.22a6.84,6.84,0,0,0,.76-5.84q-4.07,2.37-6.17,3.72a31.93,31.93,0,0,0-5,3.81,9.54,9.54,0,0,0-1.91,2.19,2.79,2.79,0,0,0-.16.68c0,.23.39.4,1,.51a11.89,11.89,0,0,0,6.09-1A10.94,10.94,0,0,0,405,313.19ZM398,291q5.49-7.44,6.76-10.74a18.5,18.5,0,0,0-5.07,5Q397.28,288.76,398,291Z"/><path class="cls-1" d="M510.05,199.65a31.77,31.77,0,0,1,16.61,15.94Q532.29,227,531,242a77.59,77.59,0,0,1-8.16,28.15A103.06,103.06,0,0,1,504,296.36Q480.21,320.54,441.49,333a458.62,458.62,0,0,0,2.8,63.74,1.34,1.34,0,0,1-.3,1.05,1.48,1.48,0,0,1-1,.55h-.17a1.47,1.47,0,0,1-.93-.33,1.4,1.4,0,0,1-.51-.93,462.14,462.14,0,0,1-2.71-63.24q-6.51,2-13.1,3.55a.69.69,0,0,1-.34.09,1.31,1.31,0,0,1-1.43-1.1,1.62,1.62,0,0,1,.21-1.1,1.15,1.15,0,0,1,.89-.59q7-1.7,13.77-3.81,1-43.69,8.12-71.85a1.63,1.63,0,0,1,.68-.85,1.29,1.29,0,0,1,1.1-.17,1.47,1.47,0,0,1,.88.68,1.36,1.36,0,0,1,.13,1.1q-6.93,27.48-8,70.16,37.37-12.17,60.36-35.59A99,99,0,0,0,520.28,269a74,74,0,0,0,7.86-27.18,50.3,50.3,0,0,0-1.22-17.33,36.25,36.25,0,0,0-6.68-13.7A28.26,28.26,0,0,0,509,202.27q-15.12-6.33-36.35,3.64-24.6,11.67-51.73,43.28a1.52,1.52,0,0,1-1,.47,1.32,1.32,0,0,1-1-.34,1.41,1.41,0,0,1-.47-1,1.44,1.44,0,0,1,.3-1q27.56-32,52.66-44Q493.74,192.81,510.05,199.65Z"/><path class="cls-1" d="M552.24,292a1.43,1.43,0,0,1,1.1.21,1.35,1.35,0,0,1,.59.93,1.56,1.56,0,0,1-.17,1,32.73,32.73,0,0,1-8.58,9.13c-2.91,1.91-5.54,2.48-7.91,1.69q-4.89-1.69-5.66-10.15c-.23.62-.56,1.47-1,2.54q-4.38,10.9-8.11,10.9h-.17c-1.46,0-2.51-1.12-3.13-3.21a18.5,18.5,0,0,1,.13-8.83c.76-3.47,2.16-5.91,4.18-7.32q3.3-2.28,7.53.26a3.9,3.9,0,0,1,1.06-1.4,1.73,1.73,0,0,1,1.14-.21c.9.23,1.32.9,1.26,2a31.24,31.24,0,0,0,.09,6.13,11.29,11.29,0,0,0,1.06,3.89,7.64,7.64,0,0,0,1.3,1.86,4,4,0,0,0,1.27.8q2.63.84,6.3-2.07a34.69,34.69,0,0,0,6.89-7.57A1.17,1.17,0,0,1,552.24,292ZM528,296.36q1.18-3,1.87-4.56a5.72,5.72,0,0,0-3-1.1,2.94,2.94,0,0,0-1.36.34,6.27,6.27,0,0,0-2.74,3.68,19.71,19.71,0,0,0-1.23,5.95c-.06,2.65.25,4.26.93,4.82a3.9,3.9,0,0,0,.8-.59,16,16,0,0,0,1.82-2.66A45.11,45.11,0,0,0,528,296.36Z"/><path class="cls-1" d="M582.67,292a1.43,1.43,0,0,1,1.06.34,1.34,1.34,0,0,1,.51,1,1.45,1.45,0,0,1-.3,1q-6.26,7.79-10.31,10.87c-2.71,2.06-5,2.77-6.85,2.15q-3.46-1.19-4.23-9a38.28,38.28,0,0,1-3.38,6.22,17,17,0,0,1-3.55,3.93,5.66,5.66,0,0,1-3.38,1.35,4.44,4.44,0,0,1-1.19-.17c-2-.68-3.09-2.8-3.21-6.38s.73-8.13,2.54-13.65a1.26,1.26,0,0,1,.72-.85,1.34,1.34,0,0,1,1.09,0,1.45,1.45,0,0,1,.89,1.82,48.06,48.06,0,0,0-2.15,9.08,18.11,18.11,0,0,0-.09,5.5c.26,1,.64,1.65,1.14,1.82a1.64,1.64,0,0,0,1.27-.26,8,8,0,0,0,1.86-1.61,21.58,21.58,0,0,0,2.28-3,35.55,35.55,0,0,0,2.5-4.73q1.3-2.91,2.49-6.38a1.31,1.31,0,0,1,1.61-1,1.28,1.28,0,0,1,1.18,1.39,58.81,58.81,0,0,0,.42,7.78,16.34,16.34,0,0,0,.94,4.1,2.29,2.29,0,0,0,1.26,1.31q3.3,1.19,14-12.09A1.18,1.18,0,0,1,582.67,292Z"/><path class="cls-1" d="M604.18,292a1.29,1.29,0,0,1,1.1.08,1.43,1.43,0,0,1,.64,1.91q-11,22-18.26,22a5.55,5.55,0,0,1-1.86-.34q-5.32-2.28-6-17t2.87-34.53a238.76,238.76,0,0,1,9.68-37.36,1.28,1.28,0,0,1,.68-.85,1.35,1.35,0,0,1,1.1,0,1.44,1.44,0,0,1,.84.72,1.25,1.25,0,0,1,0,1.1,236.3,236.3,0,0,0-8.2,30.18,203.4,203.4,0,0,0-3.85,27,104.92,104.92,0,0,0,.3,19.32q1,7.81,3.64,8.92a4.28,4.28,0,0,0,.54.12,2.55,2.55,0,0,0,.85-.08,5.67,5.67,0,0,0,1.14-.42,7.87,7.87,0,0,0,1.44-1,24.44,24.44,0,0,0,1.77-1.69,27.24,27.24,0,0,0,2.12-2.58c.79-1.07,1.6-2.27,2.45-3.59s1.8-2.93,2.87-4.82,2.17-4,3.3-6.21A1.45,1.45,0,0,1,604.18,292Z"/><path class="cls-2" d="M279.18,389.83a5.09,5.09,0,0,1-2.08-.43,3.33,3.33,0,0,1-1.5-1.38,4.77,4.77,0,0,1-.56-2.5v-6.58a4.71,4.71,0,0,1,.58-2.51,3.46,3.46,0,0,1,1.52-1.37,5,5,0,0,1,2.09-.43,4.73,4.73,0,0,1,2.24.47,3.51,3.51,0,0,1,1.39,1.24,3.08,3.08,0,0,1,.47,1.63.85.85,0,0,1-.12.54.54.54,0,0,1-.4.14.48.48,0,0,1-.41-.15.46.46,0,0,1-.1-.28,3.27,3.27,0,0,0-.15-.8,2.47,2.47,0,0,0-.44-.85,2.3,2.3,0,0,0-.92-.69,4,4,0,0,0-1.56-.26,3.23,3.23,0,0,0-2.37.81,3.43,3.43,0,0,0-.81,2.51v6.58a2.89,2.89,0,0,0,3.26,3.32,3.94,3.94,0,0,0,1.55-.26,2,2,0,0,0,.86-.66,2.45,2.45,0,0,0,.4-.87,8.42,8.42,0,0,0,.18-.83.54.54,0,0,1,.13-.31.52.52,0,0,1,.38-.12.5.5,0,0,1,.4.14.93.93,0,0,1,.12.56,3.13,3.13,0,0,1-.47,1.62,3.43,3.43,0,0,1-1.41,1.24A4.89,4.89,0,0,1,279.18,389.83Z"/><path class="cls-2" d="M315,389.83a5.14,5.14,0,0,1-2.12-.43,3.28,3.28,0,0,1-1.48-1.38,4.88,4.88,0,0,1-.55-2.5v-6.58a4.92,4.92,0,0,1,.55-2.51,3.32,3.32,0,0,1,1.48-1.37,5,5,0,0,1,2.1-.43,5,5,0,0,1,2.12.43,3.36,3.36,0,0,1,1.5,1.37,5,5,0,0,1,.54,2.51v6.58a5,5,0,0,1-.54,2.5,3.33,3.33,0,0,1-1.5,1.38A5.12,5.12,0,0,1,315,389.83Zm0-1a3.14,3.14,0,0,0,2.3-.82,3.36,3.36,0,0,0,.83-2.5v-6.58a3.39,3.39,0,0,0-.83-2.51,3.18,3.18,0,0,0-2.3-.81,3.12,3.12,0,0,0-2.29.81,3.39,3.39,0,0,0-.83,2.51v6.58a3.36,3.36,0,0,0,.83,2.5A3.09,3.09,0,0,0,315,388.84Z"/><path class="cls-2" d="M348,389.71a.56.56,0,0,1-.36-.12.38.38,0,0,1-.16-.32V375.06a.36.36,0,0,1,.16-.34.69.69,0,0,1,.36-.09.5.5,0,0,1,.34.13,1.52,1.52,0,0,1,.28.33c.08.13.15.26.21.38l6,11.78V375a.35.35,0,0,1,.15-.31.65.65,0,0,1,.36-.1.62.62,0,0,1,.35.1.34.34,0,0,1,.17.31v14.23a.36.36,0,0,1-.17.32.57.57,0,0,1-.35.12.53.53,0,0,1-.43-.26,3.48,3.48,0,0,1-.31-.51l-6.06-11.88v12.21a.36.36,0,0,1-.17.32A.59.59,0,0,1,348,389.71Z"/><path class="cls-2" d="M387.56,389.83a5.67,5.67,0,0,1-2.23-.39,3.91,3.91,0,0,1-1.4-.92,1.5,1.5,0,0,1-.47-.84.56.56,0,0,1,.08-.26.75.75,0,0,1,.19-.23.3.3,0,0,1,.2-.08.52.52,0,0,1,.39.25,5.26,5.26,0,0,0,.54.61,2.94,2.94,0,0,0,1,.61,4.34,4.34,0,0,0,1.63.26,4.2,4.2,0,0,0,1.79-.35,2.49,2.49,0,0,0,1.11-1,3.53,3.53,0,0,0,.38-1.7,3.47,3.47,0,0,0-.38-1.73,3.11,3.11,0,0,0-1-1,6,6,0,0,0-1.34-.66l-1.47-.53a6.53,6.53,0,0,1-1.35-.67,3.06,3.06,0,0,1-1-1.08,3.63,3.63,0,0,1-.38-1.77,3.79,3.79,0,0,1,.4-1.83,3.18,3.18,0,0,1,1-1.11,4.09,4.09,0,0,1,1.37-.56,6.88,6.88,0,0,1,1.4-.15,7,7,0,0,1,1.21.1,7.77,7.77,0,0,1,1.08.26,2.58,2.58,0,0,1,.78.36.53.53,0,0,1,.29.43.65.65,0,0,1-.06.26.81.81,0,0,1-.17.24.35.35,0,0,1-.24.1,1.17,1.17,0,0,1-.5-.2,4.82,4.82,0,0,0-.91-.39,4.76,4.76,0,0,0-1.5-.19,5,5,0,0,0-1.48.22,2.46,2.46,0,0,0-1.2.79,2.35,2.35,0,0,0-.48,1.58,2.45,2.45,0,0,0,.38,1.43,2.88,2.88,0,0,0,1,.86,8.69,8.69,0,0,0,1.35.57c.48.16,1,.34,1.46.55a5.8,5.8,0,0,1,1.35.78,3.48,3.48,0,0,1,1,1.26,4.55,4.55,0,0,1,.38,2,4.67,4.67,0,0,1-.54,2.39,3.34,3.34,0,0,1-1.49,1.37A5.26,5.26,0,0,1,387.56,389.83Z"/><path class="cls-2" d="M423.6,389.83a5.18,5.18,0,0,1-2.12-.43A3.28,3.28,0,0,1,420,388a5,5,0,0,1-.54-2.5V375a.35.35,0,0,1,.15-.32.69.69,0,0,1,.36-.09.73.73,0,0,1,.35.09.34.34,0,0,1,.17.32v10.48a3.36,3.36,0,0,0,.82,2.5,3.65,3.65,0,0,0,4.61,0,3.33,3.33,0,0,0,.84-2.5V375a.35.35,0,0,1,.15-.32.74.74,0,0,1,.36-.09.7.7,0,0,1,.35.09.34.34,0,0,1,.17.32v10.48a4.87,4.87,0,0,1-.56,2.5,3.33,3.33,0,0,1-1.5,1.38A5.2,5.2,0,0,1,423.6,389.83Z"/><path class="cls-2" d="M456.63,389.71a.48.48,0,0,1-.33-.12.37.37,0,0,1-.15-.32V375a.36.36,0,0,1,.16-.31.61.61,0,0,1,.36-.1.64.64,0,0,1,.35.1.34.34,0,0,1,.17.31v13.67h6.08a.32.32,0,0,1,.28.16.69.69,0,0,1,0,.68.32.32,0,0,1-.28.16Z"/><path class="cls-2" d="M491.84,389.71a.56.56,0,0,1-.36-.12.38.38,0,0,1-.16-.32V375.62h-3.56a.41.41,0,0,1-.33-.16.48.48,0,0,1-.13-.34.5.5,0,0,1,.13-.34.4.4,0,0,1,.33-.15h8.14a.38.38,0,0,1,.34.14.52.52,0,0,1,.12.33.61.61,0,0,1-.11.36.38.38,0,0,1-.35.16h-3.54v13.65a.38.38,0,0,1-.16.32A.56.56,0,0,1,491.84,389.71Z"/><path class="cls-2" d="M524,389.71a.56.56,0,0,1-.36-.12.35.35,0,0,1-.16-.32V375a.33.33,0,0,1,.16-.32.69.69,0,0,1,.36-.09.73.73,0,0,1,.35.09.33.33,0,0,1,.16.32v14.23a.35.35,0,0,1-.16.32A.59.59,0,0,1,524,389.71Z"/><path class="cls-2" d="M553.44,389.71a.56.56,0,0,1-.36-.12.35.35,0,0,1-.16-.32V375.06a.35.35,0,0,1,.16-.34.69.69,0,0,1,.36-.09.52.52,0,0,1,.34.13,1.87,1.87,0,0,1,.28.33,2.81,2.81,0,0,1,.2.38l6,11.78V375a.36.36,0,0,1,.16-.31.61.61,0,0,1,.36-.1.64.64,0,0,1,.35.1.34.34,0,0,1,.17.31v14.23a.36.36,0,0,1-.17.32.59.59,0,0,1-.35.12.52.52,0,0,1-.43-.26,2.78,2.78,0,0,1-.31-.51L554,377.06v12.21a.35.35,0,0,1-.16.32A.59.59,0,0,1,553.44,389.71Z"/><path class="cls-2" d="M593.7,389.83a5,5,0,0,1-2.09-.43,3.31,3.31,0,0,1-1.49-1.38,5,5,0,0,1-.54-2.5v-6.58a5,5,0,0,1,.54-2.51,3.34,3.34,0,0,1,1.49-1.37,4.88,4.88,0,0,1,2.09-.43,5.07,5.07,0,0,1,2.23.45,3.37,3.37,0,0,1,1.43,1.25,3.22,3.22,0,0,1,.51,1.78.47.47,0,0,1-.52.54.68.68,0,0,1-.35-.1.44.44,0,0,1-.16-.33,3.28,3.28,0,0,0-.5-1.45,2.37,2.37,0,0,0-1.06-.86,3.84,3.84,0,0,0-1.58-.29,3.14,3.14,0,0,0-2.29.81,3.39,3.39,0,0,0-.82,2.51v6.58a3.36,3.36,0,0,0,.82,2.5,3.62,3.62,0,0,0,4.59,0,3.33,3.33,0,0,0,.84-2.5v-2.79h-3a.39.39,0,0,1-.32-.14.52.52,0,0,1-.12-.33.48.48,0,0,1,.12-.33.37.37,0,0,1,.32-.15h3.65a.39.39,0,0,1,.3.14.5.5,0,0,1,.11.32v3.28a4.88,4.88,0,0,1-.55,2.5,3.26,3.26,0,0,1-1.49,1.38A5.23,5.23,0,0,1,593.7,389.83Z"/></svg>