<svg id="Layer_1" data-name="Layer 1" xmlns="http://www.w3.org/2000/svg" viewBox="0 0 841.89 595.28"><defs><style>.cls-1{fill:#075f89;}.cls-2{fill:#00b8d2;}</style></defs><path class="cls-1" d="M396.59,205.74a1.35,1.35,0,0,1,.05,1.1,1.38,1.38,0,0,1-.72.84,1.26,1.26,0,0,1-1.06,0,1.42,1.42,0,0,1-.8-.72c-.73-1.47-2.4-2.65-5-3.55q-8.28-2.88-27.68-1.19A344.6,344.6,0,0,0,316,209.88q-9.74,2.2-19.53,4.74a581.44,581.44,0,0,0-4.57,70.08q3,16.49,4.23,44.13.68,15.38.59,28.48c-.05,2.48-.11,4.6-.17,6.34s-.12,3.08-.21,4-.18,1.63-.29,2.2a8.36,8.36,0,0,1-.26,1.05.84.84,0,0,1-.33.38,1.43,1.43,0,0,1-1,.43,1.52,1.52,0,0,1-.51-.09,1.67,1.67,0,0,1-1-1,29,29,0,0,1-.72-4.86q-.42-4.11-.76-12.81c-.17-2.88-.39-7.38-.67-13.53q-1.78-34.06-1.69-54.61a65.69,65.69,0,0,0-3.22-11.92,1.52,1.52,0,0,1,0-1.05,1.26,1.26,0,0,1,.77-.76,1.47,1.47,0,0,1,1.09,0,1.39,1.39,0,0,1,.81.8,17.48,17.48,0,0,1,.59,1.77,575.06,575.06,0,0,1,4.31-58.16q-39.81,10.83-64.67,22.91a1.62,1.62,0,0,1-1.14.09,1.3,1.3,0,0,1-.8-.72,1.36,1.36,0,0,1,0-1.1,1.42,1.42,0,0,1,.72-.8q25.46-12.43,66.36-23.42c.11-1,.23-1.94.34-2.79a1.5,1.5,0,0,1,.55-1,1.31,1.31,0,0,1,1.06-.3,2,2,0,0,1,.72.3,1.23,1.23,0,0,1,.42.59,2.38,2.38,0,0,1,.13.72c-.12.62-.2,1.15-.26,1.6q9.3-2.44,18.52-4.48,26.79-6.08,46.32-7.73T390,200.75C393.33,201.94,395.52,203.6,396.59,205.74Zm-103,134.58q-.35-14.37-1.27-27.22.34,9.3,1.19,26.12a5.57,5.57,0,0,0,0,.64C293.62,340.11,293.63,340.27,293.63,340.32Z"/><path class="cls-1" d="M327.91,288.29a1.31,1.31,0,0,1,.84.63,1.36,1.36,0,0,1,.13,1.1,1.28,1.28,0,0,1-.68.85q-3.63,2.11-10.56,3.21a27.54,27.54,0,0,0-5.16,1.23,4.4,4.4,0,0,0-2.37,2.07q-1.51,2.79-2.7,13.95a51.67,51.67,0,0,1-.8,5.2,1.38,1.38,0,0,1-1.48,1.05A1.32,1.32,0,0,1,304,317a2.65,2.65,0,0,1-.55-1.1c-.09-.36-.21-1-.38-1.81q-.51-2.62-.38-11.5a163,163,0,0,1,1-16.32,1.21,1.21,0,0,1,.46-1,1.32,1.32,0,0,1,1.06-.29,1.46,1.46,0,0,1,1,.55,1.3,1.3,0,0,1,.3,1.05,161.88,161.88,0,0,0-.93,16.66,25,25,0,0,1,2-7.19,8,8,0,0,1,1.65-2.16,6.84,6.84,0,0,1,2.45-1.39,20.92,20.92,0,0,1,2.49-.72c.68-.14,1.66-.32,3-.55a29.81,29.81,0,0,0,9.72-2.87A1.56,1.56,0,0,1,327.91,288.29Z"/><path class="cls-1" d="M358.81,292a1.4,1.4,0,0,1,1.09.21,1.33,1.33,0,0,1,.6.93,1.56,1.56,0,0,1-.17,1,32.73,32.73,0,0,1-8.58,9.13c-2.91,1.91-5.54,2.48-7.91,1.69q-4.9-1.69-5.66-10.15c-.23.62-.56,1.47-1,2.54q-4.4,10.9-8.11,10.9h-.17q-2.2-.07-3.13-3.21a18.37,18.37,0,0,1,.13-8.83q1.14-5.21,4.18-7.32,3.3-2.28,7.53.26a3.91,3.91,0,0,1,1.05-1.4,1.77,1.77,0,0,1,1.15-.21c.9.23,1.32.9,1.26,2a30.48,30.48,0,0,0,.09,6.13,11.55,11.55,0,0,0,1.05,3.89,7.91,7.91,0,0,0,1.31,1.86,4,4,0,0,0,1.27.8q2.63.84,6.3-2.07a34.69,34.69,0,0,0,6.89-7.57A1.17,1.17,0,0,1,358.81,292Zm-24.27,4.35q1.18-3,1.86-4.56a5.66,5.66,0,0,0-3-1.1,2.94,2.94,0,0,0-1.35.34,6.32,6.32,0,0,0-2.75,3.68,20,20,0,0,0-1.22,5.95c-.06,2.65.25,4.26.93,4.82a3.9,3.9,0,0,0,.8-.59,16,16,0,0,0,1.82-2.66A45.11,45.11,0,0,0,334.54,296.36Z"/><path class="cls-1" d="M386.36,292.09a1.55,1.55,0,0,1,1.1.17,1.33,1.33,0,0,1,.64.89,1.42,1.42,0,0,1-.21,1.1,31.88,31.88,0,0,1-4.27,5.58,15.43,15.43,0,0,1-7.7,4.56,9.61,9.61,0,0,1-2.83.26,10.29,10.29,0,0,1-3.21-.85,86.83,86.83,0,0,1-3.64,10.32q-2.28,5.14-5,5.15a3,3,0,0,1-1.19-.25q-3.88-1.51-4.82-12.77-.84-10.81,2-18.42a1.29,1.29,0,0,1,.72-.77,1.4,1.4,0,0,1,1.1,0,1.42,1.42,0,0,1,.8.76,1.34,1.34,0,0,1,0,1.14A33.11,33.11,0,0,0,358,300a47.76,47.76,0,0,0,.84,11.2q1,4.69,2.37,5.2c.06.05.18,0,.38-.13a4.89,4.89,0,0,0,.89-1.06,11.86,11.86,0,0,0,1.18-2.28,70.42,70.42,0,0,0,3.72-10.82,8.36,8.36,0,0,1-1.6-2.2,7.74,7.74,0,0,1-.51-4.18,5.67,5.67,0,0,1,1.52-3.17,2.44,2.44,0,0,1,2.79-.76c1.18.45,1.78,1.86,1.78,4.23a22.67,22.67,0,0,1-.76,5,6.22,6.22,0,0,0,2.7.76,6.94,6.94,0,0,0,2.28-.21,12.24,12.24,0,0,0,2.79-1.14,13.83,13.83,0,0,0,3.47-2.83,34.19,34.19,0,0,0,3.72-4.86A1.18,1.18,0,0,1,386.36,292.09Zm-18.17,6.22a12.57,12.57,0,0,0,.25-2.28v-.93A3.76,3.76,0,0,0,368.19,298.31Z"/><path class="cls-1" d="M407.12,292a1.39,1.39,0,0,1,1.05.17,1.47,1.47,0,0,1,.68.89,1.3,1.3,0,0,1-.17,1.1,45.36,45.36,0,0,1-9.43,11.37q-5,4.18-9.25,4.18a6.55,6.55,0,0,1-2.79-.59c-2.48-1.13-3.88-3.52-4.19-7.19s.47-8.25,2.33-13.78a1.26,1.26,0,0,1,.72-.84,1.5,1.5,0,0,1,1.1-.09,1.32,1.32,0,0,1,.8.72,1.36,1.36,0,0,1,.08,1.06,41.61,41.61,0,0,0-2.11,9.21,14.54,14.54,0,0,0,.34,5.79,4.2,4.2,0,0,0,2.11,2.58q2.79,1.28,7.44-2,5.49-3.8,10.4-11.92A1.42,1.42,0,0,1,407.12,292Zm-15.6-12.81c.05,1-.59,1.55-1.95,1.78s-1.88-.09-1.94-.76a1.52,1.52,0,0,1,.09-.51,2.28,2.28,0,0,1,1.3-1.27,3.23,3.23,0,0,1,1.91.34.76.76,0,0,1,.25.08A.52.52,0,0,1,391.52,279.2Z"/><path class="cls-1" d="M432.1,292a1.26,1.26,0,0,1,1,.42,1.43,1.43,0,0,1,.38,1,1.47,1.47,0,0,1-.34,1,74.53,74.53,0,0,1-15.72,11.59,9.51,9.51,0,0,1-.93,8.79,13.68,13.68,0,0,1-5.71,4.77,16.34,16.34,0,0,1-7,1.74,9.35,9.35,0,0,1-1.78-.17c-1.86-.4-2.93-1.3-3.21-2.71q-.68-3.88,8.37-9.72,2.19-1.35,6.59-3.89c-.28-.5-.59-1-.93-1.52a48.86,48.86,0,0,0-4.31-5.24c-1-1.07-1.66-1.89-2.11-2.45a16.76,16.76,0,0,1-1.52-2.37,5.7,5.7,0,0,1-.85-2.75,10.73,10.73,0,0,1,.51-2.95,14.23,14.23,0,0,1,1.86-3.77,26.11,26.11,0,0,1,4.31-4.6q2.54-2.16,4.31-2a1.91,1.91,0,0,1,1.69,1.18,3.35,3.35,0,0,1,.21.81,5.73,5.73,0,0,1-.21,1.52,10.33,10.33,0,0,1-1.06,2.62q-.79,1.47-2.57,4.23c-1.19,1.83-2.68,3.93-4.49,6.29.4.45,1.08,1.24,2,2.37a54.36,54.36,0,0,1,4.57,5.5c.39.56.76,1.12,1.1,1.69a70.48,70.48,0,0,0,14.79-10.91A1.39,1.39,0,0,1,432.1,292Zm-18,21.22a6.8,6.8,0,0,0,.76-5.84q-4.05,2.37-6.17,3.72a31.93,31.93,0,0,0-5,3.81,9.38,9.38,0,0,0-1.9,2.19,2.52,2.52,0,0,0-.17.68c.05.23.39.4,1,.51a11.87,11.87,0,0,0,6.09-1A10.89,10.89,0,0,0,414.09,313.19Zm-7-22.15q5.51-7.44,6.77-10.74a18.39,18.39,0,0,0-5.08,5C407.19,287.6,406.62,289.52,407.07,291Z"/><path class="cls-1" d="M519.17,199.65a31.84,31.84,0,0,1,16.61,15.94Q541.41,227,540.13,242A77.59,77.59,0,0,1,532,270.16a102.81,102.81,0,0,1-18.89,26.2Q489.32,320.54,450.61,333a460.26,460.26,0,0,0,2.79,63.74,1.3,1.3,0,0,1-.3,1.05,1.46,1.46,0,0,1-1,.55H452A1.47,1.47,0,0,1,451,398a1.44,1.44,0,0,1-.51-.93,462.24,462.24,0,0,1-2.7-63.24q-6.51,2-13.11,3.55a.68.68,0,0,1-.33.09,1.32,1.32,0,0,1-1.44-1.1,1.62,1.62,0,0,1,.21-1.1,1.15,1.15,0,0,1,.89-.59q7-1.7,13.78-3.81,1-43.69,8.11-71.85a1.69,1.69,0,0,1,.68-.85,1.29,1.29,0,0,1,1.1-.17,1.5,1.5,0,0,1,.89.68,1.36,1.36,0,0,1,.12,1.1q-6.93,27.48-8,70.16,37.37-12.17,60.36-35.59A99,99,0,0,0,529.39,269a74.22,74.22,0,0,0,7.87-27.18A50.54,50.54,0,0,0,536,224.51a36.25,36.25,0,0,0-6.68-13.7,28.3,28.3,0,0,0-11.28-8.54q-15.14-6.33-36.35,3.64-24.6,11.67-51.74,43.28a1.52,1.52,0,0,1-1,.47,1.33,1.33,0,0,1-1-.34,1.4,1.4,0,0,1-.46-1,1.44,1.44,0,0,1,.29-1q27.56-32,52.67-44Q502.85,192.81,519.17,199.65Z"/><path class="cls-1" d="M561.35,292a1.43,1.43,0,0,1,1.1.21,1.32,1.32,0,0,1,.59.93,1.5,1.5,0,0,1-.17,1,32.73,32.73,0,0,1-8.58,9.13c-2.9,1.91-5.54,2.48-7.9,1.69q-4.9-1.69-5.67-10.15c-.22.62-.56,1.47-1,2.54q-4.4,10.9-8.12,10.9h-.17q-2.19-.07-3.12-3.21a18.36,18.36,0,0,1,.12-8.83q1.14-5.21,4.19-7.32,3.3-2.28,7.52.26a3.9,3.9,0,0,1,1.06-1.4,1.76,1.76,0,0,1,1.14-.21c.9.23,1.32.9,1.27,2a31.32,31.32,0,0,0,.08,6.13,11.52,11.52,0,0,0,1.06,3.89,7.62,7.62,0,0,0,1.31,1.86,3.83,3.83,0,0,0,1.27.8q2.61.84,6.29-2.07a34.44,34.44,0,0,0,6.89-7.57A1.19,1.19,0,0,1,561.35,292Zm-24.26,4.35q1.18-3,1.86-4.56a5.72,5.72,0,0,0-3-1.1,2.94,2.94,0,0,0-1.35.34,6.28,6.28,0,0,0-2.75,3.68,20,20,0,0,0-1.23,5.95c0,2.65.26,4.26.93,4.82a3.67,3.67,0,0,0,.81-.59,16.2,16.2,0,0,0,1.81-2.66A45,45,0,0,0,537.09,296.36Z"/><path class="cls-1" d="M591.78,292a1.42,1.42,0,0,1,1.06.34,1.34,1.34,0,0,1,.51,1,1.36,1.36,0,0,1-.3,1q-6.25,7.79-10.31,10.87c-2.71,2.06-5,2.77-6.85,2.15q-3.46-1.19-4.23-9a37.53,37.53,0,0,1-3.38,6.22,16.77,16.77,0,0,1-3.55,3.93,5.66,5.66,0,0,1-3.38,1.35,4.37,4.37,0,0,1-1.18-.17c-2-.68-3.1-2.8-3.21-6.38s.73-8.13,2.53-13.65a1.26,1.26,0,0,1,.72-.85,1.36,1.36,0,0,1,1.1,0,1.45,1.45,0,0,1,.8.72,1.48,1.48,0,0,1,.09,1.1A47.4,47.4,0,0,0,560,299.7a17.69,17.69,0,0,0-.08,5.5c.25,1,.63,1.65,1.14,1.82a1.65,1.65,0,0,0,1.27-.26,8.15,8.15,0,0,0,1.85-1.61,20.82,20.82,0,0,0,2.29-3,34.5,34.5,0,0,0,2.49-4.73c.88-1.94,1.7-4.07,2.5-6.38a1.3,1.3,0,0,1,1.6-1,1.28,1.28,0,0,1,1.19,1.39,58.81,58.81,0,0,0,.42,7.78,16,16,0,0,0,.93,4.1,2.33,2.33,0,0,0,1.27,1.31q3.29,1.19,13.94-12.09A1.18,1.18,0,0,1,591.78,292Z"/><path class="cls-1" d="M613.3,292a1.3,1.3,0,0,1,1.1.08,1.41,1.41,0,0,1,.71.85A1.35,1.35,0,0,1,615,294q-11,22-18.26,22a5.55,5.55,0,0,1-1.86-.34q-5.32-2.28-6-17t2.88-34.53a237.65,237.65,0,0,1,9.67-37.36,1.31,1.31,0,0,1,.68-.85,1.35,1.35,0,0,1,1.1,0,1.41,1.41,0,0,1,.84.72,1.25,1.25,0,0,1,0,1.1,236.3,236.3,0,0,0-8.2,30.18,203.21,203.21,0,0,0-3.84,27,104.15,104.15,0,0,0,.29,19.32q1,7.81,3.64,8.92a4.07,4.07,0,0,0,.55.12,2.48,2.48,0,0,0,.84-.08,6,6,0,0,0,1.15-.42,7.85,7.85,0,0,0,1.43-1,22.57,22.57,0,0,0,1.78-1.69,27.34,27.34,0,0,0,2.11-2.58q1.18-1.61,2.45-3.59c.85-1.32,1.8-2.93,2.88-4.82s2.17-4,3.29-6.21A1.44,1.44,0,0,1,613.3,292Z"/><path class="cls-2" d="M302.67,391a.62.62,0,0,1-.4-.13.39.39,0,0,1-.17-.35v-15.8a.37.37,0,0,1,.17-.35.74.74,0,0,1,.4-.1.76.76,0,0,1,.39.1.38.38,0,0,1,.18.35v7.08h7v-7.08a.39.39,0,0,1,.17-.35.77.77,0,0,1,.4-.1.76.76,0,0,1,.39.1.37.37,0,0,1,.19.35v15.8a.39.39,0,0,1-.19.35.63.63,0,0,1-.39.13.64.64,0,0,1-.4-.13.41.41,0,0,1-.17-.35v-7.67h-7v7.67a.4.4,0,0,1-.18.35A.63.63,0,0,1,302.67,391Z"/><path class="cls-2" d="M347.37,391.13a5.5,5.5,0,0,1-2.34-.48,3.59,3.59,0,0,1-1.65-1.53,5.54,5.54,0,0,1-.61-2.78V379a5.54,5.54,0,0,1,.61-2.78,3.57,3.57,0,0,1,1.65-1.52,5.47,5.47,0,0,1,2.32-.48,5.62,5.62,0,0,1,2.36.48,3.64,3.64,0,0,1,1.66,1.52A5.54,5.54,0,0,1,352,379v7.3a5.54,5.54,0,0,1-.61,2.78,3.66,3.66,0,0,1-1.66,1.53A5.56,5.56,0,0,1,347.37,391.13Zm0-1.1a3.46,3.46,0,0,0,2.55-.91,3.72,3.72,0,0,0,.93-2.78V379a3.72,3.72,0,0,0-.93-2.78,4,4,0,0,0-5.09,0,3.76,3.76,0,0,0-.92,2.78v7.3a3.76,3.76,0,0,0,.92,2.78A3.44,3.44,0,0,0,347.35,390Z"/><path class="cls-2" d="M383.93,391a.56.56,0,0,1-.37-.13.43.43,0,0,1-.16-.35v-15.8a.38.38,0,0,1,.18-.34.72.72,0,0,1,.4-.11.76.76,0,0,1,.38.11.37.37,0,0,1,.19.34v15.18h6.75a.34.34,0,0,1,.31.17.77.77,0,0,1,0,.76.34.34,0,0,1-.31.17Z"/><path class="cls-2" d="M422.32,391a.56.56,0,0,1-.38-.14.42.42,0,0,1-.15-.32V374.71a.44.44,0,0,1,.15-.32.55.55,0,0,1,.38-.13h4.05a5.66,5.66,0,0,1,2.36.48,3.64,3.64,0,0,1,1.66,1.52A5.54,5.54,0,0,1,431,379v7.17a5.57,5.57,0,0,1-.6,2.78,3.69,3.69,0,0,1-1.66,1.52,5.66,5.66,0,0,1-2.36.48Zm.62-1.1h3.45a3.46,3.46,0,0,0,2.54-.9,3.77,3.77,0,0,0,.92-2.78V379a3.76,3.76,0,0,0-.92-2.78,3.46,3.46,0,0,0-2.54-.91h-3.45Z"/><path class="cls-2" d="M463,391a.64.64,0,0,1-.4-.13.41.41,0,0,1-.17-.35v-15.8a.39.39,0,0,1,.17-.35.77.77,0,0,1,.4-.1.76.76,0,0,1,.39.1.38.38,0,0,1,.19.35v15.8a.41.41,0,0,1-.19.35A.63.63,0,0,1,463,391Z"/><path class="cls-2" d="M495.7,391a.64.64,0,0,1-.4-.13.41.41,0,0,1-.17-.35V374.74a.41.41,0,0,1,.17-.38.77.77,0,0,1,.4-.1.55.55,0,0,1,.38.15,1.37,1.37,0,0,1,.31.36,4.57,4.57,0,0,1,.23.42l6.64,13.08V374.71a.4.4,0,0,1,.17-.34.75.75,0,0,1,.4-.11.77.77,0,0,1,.39.11.38.38,0,0,1,.18.34v15.8a.4.4,0,0,1-.18.35.63.63,0,0,1-.39.13.6.6,0,0,1-.48-.29,3.35,3.35,0,0,1-.34-.56L496.28,377v13.55a.39.39,0,0,1-.19.35A.63.63,0,0,1,495.7,391Z"/><path class="cls-2" d="M540.39,391.13a5.52,5.52,0,0,1-2.33-.48,3.61,3.61,0,0,1-1.64-1.53,5.43,5.43,0,0,1-.61-2.78V379a5.43,5.43,0,0,1,.61-2.78,3.59,3.59,0,0,1,1.64-1.52,6.12,6.12,0,0,1,4.8,0,3.85,3.85,0,0,1,1.59,1.38,3.66,3.66,0,0,1,.56,2,.55.55,0,0,1-.16.45.62.62,0,0,1-.41.14.71.71,0,0,1-.39-.11.46.46,0,0,1-.18-.37,3.57,3.57,0,0,0-.55-1.6,2.65,2.65,0,0,0-1.18-1,4.3,4.3,0,0,0-1.75-.33,3.46,3.46,0,0,0-2.54.91,3.76,3.76,0,0,0-.92,2.78v7.3a3.76,3.76,0,0,0,.92,2.78,3.42,3.42,0,0,0,2.54.91,3.48,3.48,0,0,0,2.55-.91,3.72,3.72,0,0,0,.93-2.78v-3.09H540.5a.41.41,0,0,1-.35-.16.53.53,0,0,1-.13-.36.56.56,0,0,1,.13-.37.41.41,0,0,1,.35-.16h4a.43.43,0,0,1,.34.15.55.55,0,0,1,.12.35v3.64a5.43,5.43,0,0,1-.61,2.78,3.59,3.59,0,0,1-1.65,1.53A5.66,5.66,0,0,1,540.39,391.13Z"/><path class="cls-2" d="M579.78,391.13a6.32,6.32,0,0,1-2.48-.44,4.35,4.35,0,0,1-1.55-1,1.64,1.64,0,0,1-.52-.92.61.61,0,0,1,.09-.3.88.88,0,0,1,.2-.25.4.4,0,0,1,.23-.09.59.59,0,0,1,.43.28,6.21,6.21,0,0,0,.6.68,3.28,3.28,0,0,0,1.08.67,4.79,4.79,0,0,0,1.81.29,4.54,4.54,0,0,0,2-.39,2.71,2.71,0,0,0,1.23-1.16,3.77,3.77,0,0,0,.43-1.89,3.68,3.68,0,0,0-.43-1.91,3.4,3.4,0,0,0-1.1-1.16,6.61,6.61,0,0,0-1.48-.74l-1.63-.58a8.05,8.05,0,0,1-1.5-.74,3.32,3.32,0,0,1-1.11-1.21,4,4,0,0,1-.42-2,4.07,4.07,0,0,1,.45-2,3.36,3.36,0,0,1,1.15-1.24,4.7,4.7,0,0,1,1.51-.61,7.12,7.12,0,0,1,1.56-.18,7.42,7.42,0,0,1,1.34.12,9.63,9.63,0,0,1,1.2.28,3.23,3.23,0,0,1,.87.4.65.65,0,0,1,.32.49.61.61,0,0,1-.07.28.81.81,0,0,1-.18.26.38.38,0,0,1-.28.12A1.24,1.24,0,0,1,583,376a5.5,5.5,0,0,0-1-.43,5.2,5.2,0,0,0-1.67-.22,5.44,5.44,0,0,0-1.64.25,2.85,2.85,0,0,0-1.34.87,2.64,2.64,0,0,0-.53,1.76,2.6,2.6,0,0,0,.43,1.58,3.05,3.05,0,0,0,1.11,1,8.23,8.23,0,0,0,1.48.63c.54.18,1.08.38,1.63.61a6.54,6.54,0,0,1,1.5.87,3.88,3.88,0,0,1,1.1,1.4,5.14,5.14,0,0,1,.42,2.24,5.2,5.2,0,0,1-.6,2.65,3.72,3.72,0,0,1-1.65,1.52A5.74,5.74,0,0,1,579.78,391.13Z"/></svg>