<?xml version="1.0" encoding="utf-8"?>
<!-- Generator: Adobe Illustrator 27.5.0, SVG Export Plug-In . SVG Version: 6.00 Build 0)  -->
<svg version="1.0" id="Layer_1" xmlns="http://www.w3.org/2000/svg" xmlns:xlink="http://www.w3.org/1999/xlink" x="0px" y="0px"
	 viewBox="0 0 250 80.5" style="enable-background:new 0 0 250 80.5;" xml:space="preserve">
<style type="text/css">
	.st0{fill:#FFFFFF;}
</style>
<g>
	<path class="st0" d="M43.5,20.2v11.1h22.4c0,0,0,0,0,0c0,0,0,0,0,0.1c0,0,0,0.1,0,0.1c0,0.1,0,0.1,0,0.2c0,0.1,0,0.1,0,0.2
		c0,0.1,0,0.2,0,0.2c0,0.1,0,0.2,0,0.3c0,0.1,0,0.2,0,0.3c0,0.1,0,0.2,0,0.3c0,0.1,0,0.2,0,0.3c0,0.1,0,0.2,0,0.3c0,0.1,0,0.2,0,0.3
		c0,0.1,0,0.2,0,0.4c0,0.1,0,0.2,0,0.4c0,0.1,0,0.2,0,0.4c0,0.1,0,0.2,0,0.4c0,0.1,0,0.2,0,0.4c0,0.1,0,0.2,0,0.3c0,0.1,0,0.2,0,0.3
		c0,0.1,0,0.2,0,0.3c0,0.1,0,0.2,0,0.3c0,0.1,0,0.2,0,0.3c0,0.1,0,0.2,0,0.2c0,0.1,0,0.1,0,0.2c0,0.3,0,0.6,0,0.9c0,0,0,0.1,0,0.1
		c0,0,0,0.1-0.1,0.1c0,0,0,0.1-0.1,0.1c0,0-0.1,0.1-0.1,0.1c0,0-0.1,0.1-0.1,0.1c0,0-0.1,0.1-0.1,0.1c0,0-0.1,0.1-0.2,0.1
		c-0.1,0-0.1,0.1-0.2,0.1c-0.1,0-0.1,0.1-0.2,0.1c-0.1,0-0.2,0.1-0.2,0.1c-0.1,0-0.2,0.1-0.3,0.1c-0.1,0-0.2,0.1-0.3,0.1
		c-0.1,0-0.2,0.1-0.3,0.1c-0.1,0-0.2,0.1-0.4,0.1c-0.1,0-0.3,0.1-0.4,0.1c-0.2,0-0.3,0-0.5,0.1c-0.2,0-0.3,0-0.5,0.1
		c-0.2,0-0.4,0-0.5,0c-0.2,0-0.4,0-0.6,0c-0.1,0-0.3,0-0.4,0c-5.9,0-45-0.1-45-0.1s-2.4,0-2.4-3.4c0-3.4,0-22.3,0-22.3
		s-0.1-2.2,2.5-2.2s62.1,0,62.1,0l0-12.3H14.5C14.5,0,0-0.1,0,12s0,28.9,0,28.9s0,11.5,13.9,11.5s51.7,0,51.7,0S79,52.1,79,40.6
		s0-20.4,0-20.4L43.5,20.2z"/>
	<path class="st0" d="M87,40l0.1,12.4h62.1c0,0,13.6-0.5,13.6-11.7s0-9,0-9S162.9,20,149.4,20c-13.5,0-48.3,0-48.3,0
		s-2.5,0.5-2.5-1.7s0-4.7,0-4.7s-0.1-1.5,2.2-1.5s60.2,0,60.2,0V0H99.9c0,0-14.3-0.5-14.3,11.6c0,2,0,3.9,0,5.9
		c0,2.7-0.5,5.8,0.8,8.3c0.4,0.7,0.9,1.4,1.4,2c0.7,0.8,1.6,1.4,2.5,2c1.2,0.7,2.5,1.2,3.9,1.6c1.8,0.5,3.7,0.7,5.5,0.7
		c0.2,0,0.5,0,0.7,0c14,0,47.4,0,47.4,0s2-0.1,2,1.7c0,1.9,0,4.9,0,4.9s0,1.5-2,1.5C145.8,40.2,87,40,87,40z"/>
	<path class="st0" d="M245.1,25.3c0,0,4.1-2.1,4.4-6.5v-8.1c0,0-0.3-10.6-13.8-10.6c-13.5,0-66.4,0-66.4,0v52.3h1.2
		c0.5,0,0.9,0,1.4,0h16.7c1.2,0,2.5,0,3.7,0h15.7c1.3,0,2.6,0,3.9,0h13.9c0.9,0,1.9,0,2.8,0h6.1c1.7,0,3.4-0.2,5.1-0.6
		c1.2-0.3,2.4-0.7,3.5-1.1c1.2-0.5,2.4-1.2,3.5-2c1.1-0.8,2-1.9,2.5-3.1c0.5-1,0.7-2.2,0.7-3.3c0-9,0-10.4,0-10.4
		S250.3,27.3,245.1,25.3z M236.9,38.1c0,1.6-1.2,1.5-1.2,1.5l-53.3,0v-7.9h53.1c1.4,0,1.5,1.5,1.5,1.5S236.9,36.6,236.9,38.1z
		 M236.9,18.8c0,1.6-1.2,1.5-1.2,1.5l-53.3,0v-7.9h53.1c1.4,0,1.5,1.5,1.5,1.5S236.9,17.2,236.9,18.8z"/>
	<g>
		<path class="st0" d="M17,70.4c0,1.2,0.1,2.4,0,3.5c-0.3,3.2-3.2,6.6-7.5,6.6H8.2c-3.6,0-6.5-2.5-7.3-5.6c-0.3-1.1-0.2-1.7-0.2-6.7
			c0-3.6,3.2-7.2,7.5-7.2h1.3c3.4,0,6.4,2.4,7.3,5.6l-3.4,1.2l0,0c-0.3-1.7-1.8-3.2-3.8-3.2H8.2c-2.2,0-3.9,1.8-3.9,3.9
			c0,2,0,2.5,0,4.5c0,1.2,0.5,2.2,1.3,2.9c1.5,1.3,4.9,1.3,6.4,0c0.6-0.5,1-1.2,1.2-1.9h-4v-3.6H17z"/>
		<path class="st0" d="M18.5,72.8c0-4.1-0.5-7,2.4-9.8c2.9-2.7,7.4-2.7,10.3,0.1c1.4,1.4,2.2,3.1,2.3,5.1l0,0c0,2.4,0,9.3,0,11.7H30
			v-6.7h-7.8V80h-3.7C18.5,77.6,18.5,75.9,18.5,72.8z M30,69.6c0-1.1,0.2-2.5-1.3-3.8c-1.5-1.4-3.7-1.4-5.2-0.1
			c-1.5,1.3-1.3,2.8-1.3,3.9L30,69.6L30,69.6z"/>
		<path class="st0" d="M48.3,76.3v3.6c0,0-7.7,0-7.7,0c-3.1,0-5.1-2.8-5-4.9V61.5h3.7l0,13.5c0,0.6,0.5,1.1,0.9,1.2l0,0
			C40.4,76.3,40.3,76.3,48.3,76.3z"/>
		<path class="st0" d="M66.6,80h-8.2v-3.6h8.1c3.2,0,3.1-4.7,0-4.7c-0.9,0-2.6,0-3.5,0c-2.8,0-4.8-2.1-5.1-4.4c-0.4-3.1,2-5.7,5-5.7
			h8.2v3.6c-0.1,0-8.2,0-8.3,0v0c-1.7,0.1-1.7,2.7,0,2.8v0c0.1,0,3.1,0,3.7,0c1.6,0,3.1,0.6,4.2,1.8C74.5,73.5,71.8,79.9,66.6,80z"
			/>
		<path class="st0" d="M89.1,67.6c0,3.3-2.7,6-6,6h-5.4v6.3H74l0-18.4h9C86.4,61.6,89.1,64.2,89.1,67.6z M83,65.2h-5.3V70H83
			C86.2,70,86.2,65.2,83,65.2z"/>
		<path class="st0" d="M106.3,67.9c0.1,0.9,0,1.8,0,2.7c0,2.7,0.2,4.4-1.3,6.5c-1.3,2-3.5,3.3-6.2,3.3h-1.3c-2.7,0-4.9-1.4-6.2-3.3
			c-1.4-2.1-1.3-3.9-1.3-5.9c0-1,0-2.1,0-3.1c0-3.6,3.2-7.2,7.5-7.2h1.3C102.6,61,106,63.8,106.3,67.9z M102.6,67.9
			c-0.1-0.9-0.6-1.7-1.3-2.3c-0.7-0.7-2-1-3.2-1c-1.2,0-2.5,0.3-3.2,1c-0.7,0.6-1.2,1.4-1.3,2.3c-0.1,0.3-0.1,5.3,0,5.7
			c0.1,1,0.6,1.7,1.3,2.4c0.7,0.6,1.6,0.9,2.5,0.9h1.3c1,0,1.8-0.3,2.5-0.9c0.7-0.6,1.2-1.4,1.3-2.4
			C102.7,73.2,102.7,68.2,102.6,67.9z"/>
		<path class="st0" d="M116.8,73.6h-5v6.3h-3.7V61.5h8.6c1.7,0,3.1,0.6,4.3,1.8c2.5,2.6,2.2,6.5-0.2,8.7c0.6,0.9,0.9,1.8,0.9,2.9v5
			h-3.6v-5C118.2,74.2,117.6,73.6,116.8,73.6z M111.8,69.9h5c0.7,0,1.2-0.2,1.7-0.7c0.9-0.9,0.9-2.4,0-3.4c-0.5-0.5-1-0.7-1.8-0.7
			h-4.9V69.9z"/>
		<path class="st0" d="M129.1,79.9V65.2h-5.8v-3.6h15.2v3.6h-5.8v14.8H129.1z"/>
		<path class="st0" d="M148.7,80V61.6h9c1.4,0,2.5,0.5,3.5,1.5c1.9,1.8,1.9,4.6,0.5,6.4c0.5,0.5,0.9,1,1.3,1.7c1.2,2.1,1,5-1.1,7.1
			c-1,1-2.3,1.6-3.7,1.7v0C157.3,80,159.6,80,148.7,80z M157.9,65.2L157.9,65.2l-5.5,0v2.7c2.5,0,5.5,0,5.5,0
			C159.4,67.8,159.4,65.4,157.9,65.2z M157.7,71.6h-5.3v4.7h5.3C160.9,76.3,160.8,71.6,157.7,71.6z"/>
		<path class="st0" d="M179.1,80H173c-1.7,0-3.5-0.4-4.9-1.3c-1.2-0.8-2.2-1.9-2.7-3.3c-0.6-1.5-0.6-3.1-0.6-4.7
			c0-1.7-0.2-3.3,0.9-5.2c0.7-1.3,1.8-2.4,3.2-3c1.3-0.6,2.7-0.9,4.2-0.9h6.1v3.6H173c-3,0-4.5,1.7-4.6,3.8h9.4v3.6h-9.4
			c0,2.1,1.5,3.8,4.6,3.8h6.1V80z"/>
		<polygon class="st0" points="209.8,61.6 209.8,65.2 204.1,65.2 204.1,79.9 200.4,79.9 200.4,65.2 189,65.2 189,79.9 185.4,79.9 
			185.4,65.2 179.6,65.2 179.6,61.6 		"/>
		<path class="st0" d="M210.9,79.9l0-18.4h3.6v18.4H210.9z"/>
		<path class="st0" d="M216.6,79.9c0-2.3,0-9.5,0-11.7l0,0c0.1-2,0.9-3.6,2.3-5c2.9-2.8,7.3-2.7,10.2-0.1c1.6,1.5,2.4,3.4,2.4,5.5
			v11.4h-3.6v-9.8c0-1.7,0.2-3.1-1.3-4.5c-1.5-1.3-3.7-1.3-5.1,0.1c-0.7,0.7-1.1,1.5-1.2,2.5v11.7H216.6z"/>
		<path class="st0" d="M249.4,70.4c0,1.2,0.1,2.4,0,3.5c-0.3,3.2-3.2,6.6-7.5,6.6h-1.3c-3.6,0-6.5-2.5-7.3-5.6
			c-0.3-1.1-0.2-1.7-0.2-6.7c0-3.6,3.2-7.2,7.5-7.2h1.3c3.4,0,6.4,2.4,7.3,5.6l-3.4,1.2l0,0c-0.3-1.7-1.8-3.2-3.8-3.2h-1.3
			c-2.2,0-3.9,1.8-3.9,3.9c0,2,0,2.5,0,4.5c0,1.2,0.5,2.2,1.3,2.9c1.5,1.3,4.9,1.3,6.4,0c0.6-0.5,1-1.2,1.2-1.9h-4v-3.6H249.4z"/>
	</g>
</g>
</svg>
