<svg xmlns="http://www.w3.org/2000/svg" viewBox="0 0 120.35 72.984" xmlns:xlink="http://www.w3.org/1999/xlink">
 <defs>
  <style>
   .cls-1,.cls-2{fill:#fff}.cls-1,.cls-11,.cls-14,.cls-16,.cls-18,.cls-20,.cls-22,.cls-24,.cls-26,.cls-28,.cls-3,.cls-30,.cls-5,.cls-7,.cls-9{fill-rule:evenodd}.cls-3{fill:#cc6b39}.cls-10,.cls-12,.cls-13,.cls-15,.cls-17,.cls-19,.cls-21,.cls-23,.cls-25,.cls-27,.cls-29,.cls-31,.cls-4,.cls-6,.cls-8{fill:none}.cls-4{stroke:#cc6b39}.cls-10,.cls-12,.cls-15,.cls-17,.cls-19,.cls-21,.cls-23,.cls-25,.cls-27,.cls-29,.cls-31,.cls-4,.cls-6,.cls-8{stroke-miterlimit:3.864;stroke-width:.5px}.cls-5{fill:#822a85}.cls-6{stroke:#822a85}.cls-7{fill:#ec008c}.cls-8{stroke:#ec008c}.cls-9{fill:#5f6db3}.cls-10{stroke:#5f6db3}.cls-11{fill:#46065c}.cls-12{stroke:#46065c}.cls-13{stroke:#000;stroke-miterlimit:3.864;stroke-width:.321px}.cls-14{fill:#b82837}.cls-15{stroke:#b82837}.cls-16{fill:#ed1c24}.cls-17{stroke:#ed1c24}.cls-18{fill:#f37021}.cls-19{stroke:#f37021}.cls-20{fill:#50b848}.cls-21{stroke:#50b848}.cls-22{fill:#639144}.cls-23{stroke:#639144}.cls-24{fill:#007196}.cls-25{stroke:#007196}.cls-26{fill:#00abbd}.cls-27{stroke:#00abbd}.cls-28{fill:#fdb933}.cls-29{stroke:#fdb933}.cls-30{fill:#e28f38}.cls-31{stroke:#e28f38}
  </style>
 </defs>
 <g id="Group_462" data-name="Group 462" transform="translate(-392.512 -89.589)">
  <path id="Path_2" data-name="Path 2" class="cls-1" d="M30.123 51.6h-2.974v8.252l-3.07 2.3V51.6H21.2v11.9h2.591l3.358-2.5v2.5h2.974z" transform="translate(391.662 87.561)">
  </path>
  <path id="Path_3" data-name="Path 3" class="cls-1" d="M38.179 51.6H35.3v11.9h6.045v-.864h-3.166z" transform="translate(391.091 87.561)">
  </path>
  <path id="Path_4" data-name="Path 4" class="cls-1" d="M15.772 63.388h-2.878V50.627l-3.166 2.3v10.461H6.945V50.627l-3.166 2.3v10.461H.9V48.9h2.879v2.687l3.55-2.687h2.4v2.687l3.645-2.687h2.4z" transform="translate(392.484 87.67)">
  </path>
  <path id="Rectangle_4" data-name="Rectangle 4" class="cls-2" transform="translate(444.333 139.161)" d="M0 0h2.879v11.802H0z">
  </path>
  <path id="Path_5" data-name="Path 5" class="cls-1" d="M41.5 51.6h9.4v.864h-3.259V63.5h-2.879V52.464H41.5z" transform="translate(390.84 87.561)">
  </path>
  <path id="Path_6" data-name="Path 6" class="cls-1" d="M61.8 50.819c0-1.151 1.343-1.919 2.687-1.919H68.9v2.591h-1.151v-1.536h-3.07v12.378h1.343a1.692 1.692 0 0 0 1.727-1.533v-.864H68.9v.864a2.767 2.767 0 0 1-2.879 2.495H61.8V50.819z" transform="translate(390.017 87.67)">
  </path>
  <path id="Path_7" data-name="Path 7" class="cls-1" d="M72.6 51.6h2.878v5.277l3.07-2.3V51.6h2.974v11.9h-2.973v-7.774l-3.07 2.3V63.5H72.6z" transform="translate(389.58 87.561)">
  </path>
  <path id="Rectangle_5" data-name="Rectangle 5" class="cls-2" transform="translate(489.142 139.161)" d="M0 0h2.879v11.802H0z">
  </path>
  <path id="Path_8" data-name="Path 8" class="cls-1" d="M111.383 52.468v10.266h.864c.864 0 1.535-.48 1.535-1.151v-.96h1.055v.96c0 1.151-1.247 1.919-2.591 1.919H108.6V53.139c0-.864 1.151-1.439 1.823-1.439h4.414v2.207h-1.055v-1.439z" transform="translate(388.122 87.557)">
  </path>
  <path id="Path_9" data-name="Path 9" class="cls-1" d="M118.7 51.6h6.045v.864h-3.166V56.3h2.591v.768h-2.591v5.565h3.166v.867H118.7z" transform="translate(387.713 87.561)">
  </path>
  <path id="Path_10" data-name="Path 10" class="cls-1" d="M89.483 52.464h3.166V62.73h-3.166zm4.03-.864h-4.8c-1.055 0-2.015.672-2.015 1.535v8.827c0 .768.768 1.535 2.015 1.535h4.893c.864 0 1.919-.768 1.919-1.535v-8.827c.002-.767-.957-1.535-2.013-1.535z" transform="translate(389.009 87.561)">
  </path>
  <path id="Path_11" data-name="Path 11" class="cls-3" d="M62.131.6L53.4 9.907l8.731 33.487z" transform="translate(390.358 89.627)">
  </path>
  <path id="Path_12" data-name="Path 12" class="cls-4" d="M62.131.6L53.4 9.907l8.731 33.487z" transform="translate(390.358 89.627)">
  </path>
  <path id="Path_13" data-name="Path 13" class="cls-5" d="M17.6 10.2l1.439 10.938 40.011 22.74z" transform="translate(391.807 89.238)">
  </path>
  <path id="Path_14" data-name="Path 14" class="cls-6" d="M17.6 10.2l1.439 10.938 40.011 22.74z" transform="translate(391.807 89.238)">
  </path>
  <path id="Path_15" data-name="Path 15" class="cls-7" d="M59.05 43.878L32.28 14.614 17.6 10.2z" transform="translate(391.807 89.238)">
  </path>
  <path id="Path_16" data-name="Path 16" class="cls-8" d="M59.05 43.878L32.28 14.614 17.6 10.2z" transform="translate(391.807 89.238)">
  </path>
  <path id="Path_17" data-name="Path 17" class="cls-9" d="M56.919 44.564L16.044 22.4.5 22.784z" transform="translate(392.5 88.744)">
  </path>
  <path id="Path_18" data-name="Path 18" class="cls-10" d="M56.919 44.564L16.044 22.4.5 22.784z" transform="translate(392.5 88.744)">
  </path>
  <path id="Path_19" data-name="Path 19" class="cls-11" d="M.5 22.8l3.838 8.252 52.581 13.529z" transform="translate(392.5 88.727)">
  </path>
  <path id="Path_20" data-name="Path 20" class="cls-12" d="M.5 22.8l3.838 8.252 52.581 13.529z" transform="translate(392.5 88.727)">
  </path>
  <path id="Path_27" data-name="Path 27" class="cls-14" d="M39.05 3L35.5 13.555l25.139 29.936z" transform="translate(391.083 89.529)">
  </path>
  <path id="Path_28" data-name="Path 28" class="cls-15" d="M39.05 3L35.5 13.555l25.139 29.936z" transform="translate(391.083 89.529)">
  </path>
  <path id="Path_29" data-name="Path 29" class="cls-16" d="M60.789 43.491l-10.746-33.1L39.2 3z" transform="translate(390.933 89.529)">
  </path>
  <path id="Path_30" data-name="Path 30" class="cls-17" d="M60.789 43.491l-10.746-33.1L39.2 3z" transform="translate(390.933 89.529)">
  </path>
  <path id="Path_31" data-name="Path 31" class="cls-18" d="M62.5.6l8.636 9.307L62.5 43.394z" transform="translate(389.989 89.627)">
  </path>
  <path id="Path_32" data-name="Path 32" class="cls-19" d="M62.5.6l8.636 9.307L62.5 43.394z" transform="translate(389.989 89.627)">
  </path>
  <path id="Path_33" data-name="Path 33" class="cls-20" d="M105.463 10.2l-1.343 10.938-39.82 22.74z" transform="translate(389.916 89.238)">
  </path>
  <path id="Path_34" data-name="Path 34" class="cls-21" d="M105.463 10.2l-1.343 10.938-39.82 22.74z" transform="translate(389.916 89.238)">
  </path>
  <path id="Path_35" data-name="Path 35" class="cls-22" d="M64.3 43.878l26.386-29.264 14.777-4.414z" transform="translate(389.916 89.238)">
  </path>
  <path id="Path_36" data-name="Path 36" class="cls-23" d="M64.3 43.878l26.386-29.264 14.777-4.414z" transform="translate(389.916 89.238)">
  </path>
  <path id="Path_37" data-name="Path 37" class="cls-24" d="M65.7 44.564L106.767 22.4l15.736.288z" transform="translate(389.859 88.744)">
  </path>
  <path id="Path_38" data-name="Path 38" class="cls-25" d="M65.7 44.564L106.767 22.4l15.736.288z" transform="translate(389.859 88.744)">
  </path>
  <path id="Path_39" data-name="Path 39" class="cls-26" d="M122.5 22.7l-4.03 8.348L65.7 44.577z" transform="translate(389.859 88.732)">
  </path>
  <path id="Path_40" data-name="Path 40" class="cls-27" d="M122.5 22.7l-4.03 8.348L65.7 44.577z" transform="translate(389.859 88.732)">
  </path>
  <path id="Path_47" data-name="Path 47" class="cls-28" d="M84.5 3l3.454 10.555L63.3 43.491z" transform="translate(389.957 89.529)">
  </path>
  <path id="Path_48" data-name="Path 48" class="cls-29" d="M84.5 3l3.454 10.555L63.3 43.491z" transform="translate(389.957 89.529)">
  </path>
  <path id="Path_49" data-name="Path 49" class="cls-30" d="M63.3 43.491l10.746-33.1L84.5 3z" transform="translate(389.957 89.529)">
  </path>
  <path id="Path_50" data-name="Path 50" class="cls-31" d="M63.3 43.491l10.746-33.1L84.5 3z" transform="translate(389.957 89.529)">
  </path>
  <path id="Path_51" data-name="Path 51" class="cls-1" d="M22.5 69.9v5.757h2.015v-.672h-1.247v-1.919h1.151v-.672h-1.151v-1.822h1.247V69.9z" transform="translate(391.609 86.82)">
  </path>
  <path id="Path_52" data-name="Path 52" class="cls-1" d="M28.676 71.243v-.1l1.343 4.51h.768V69.9h-.768v2.015l.192 2.3v.1L28.772 69.9H28.1v5.757h.768v-2.111l-.1-1.919z" transform="translate(391.382 86.82)">
  </path>
  <path id="Path_53" data-name="Path 53" class="cls-1" d="M35.464 72.387v-1.919h.1c.576 0 .672.48.672.96-.005.672-.197 1.055-.772.959zm-.764 3.262h.768V72.77l1.055 2.879h.768l-1.06-2.879c.672-.1.768-.959.768-1.535 0-1.439-.864-1.535-1.439-1.535h-.96v5.949z" transform="translate(391.119 86.828)">
  </path>
  <path id="Rectangle_6" data-name="Rectangle 6" class="cls-2" transform="translate(431.668 156.72)" d="M0 0h.768v5.853H0z">
  </path>
  <path id="Path_54" data-name="Path 54" class="cls-1" d="M47.7 69.992a1.387 1.387 0 0 0-.672-.192c-1.535 0-1.727 1.919-1.727 3.07 0 1.247.192 2.878 1.823 2.878a.7.7 0 0 0 .576-.192v-.672a.865.865 0 0 1-.48.1c-1.055 0-1.151-1.439-1.151-2.207s0-2.3 1.055-2.3a.733.733 0 0 1 .48.192v-.672z" transform="translate(390.686 86.824)">
  </path>
  <path id="Path_55" data-name="Path 55" class="cls-1" d="M51.2 69.9v5.757h.768v-2.878h1.151v2.878h.768V69.9h-.768v2.207h-1.151V69.9z" transform="translate(390.447 86.82)">
  </path>
  <path id="Rectangle_7" data-name="Rectangle 7" class="cls-2" transform="translate(447.979 156.72)" d="M0 0h.768v5.853H0z">
  </path>
  <path id="Path_56" data-name="Path 56" class="cls-1" d="M63.072 71.243v-.1l1.343 4.51h.672V69.9h-.768v2.015l.192 2.3v.1L63.168 69.9H62.4v5.757h.768v-2.111l-.1-1.919z" transform="translate(389.993 86.82)">
  </path>
  <path id="Path_57" data-name="Path 57" class="cls-1" d="M70.439 72.583v.672h.672v.288c0 1.343-.384 1.439-.672 1.439-.384 0-.672-.192-.672-2.207 0-1.439 0-2.3.672-2.3.48 0 .576.384.672.768l.768-.288a1.3 1.3 0 0 0-1.44-1.155C69.1 69.8 69 71.143 69 72.774s.192 2.974 1.535 2.974c1.535 0 1.343-1.919 1.343-3.07v-.1z" transform="translate(389.726 86.824)">
  </path>
  <path id="Path_58" data-name="Path 58" class="cls-1" d="M80 69.9v5.757h2.111v-.672h-1.343V69.9z" transform="translate(389.28 86.82)">
  </path>
  <path id="Rectangle_8" data-name="Rectangle 8" class="cls-2" transform="translate(474.558 156.72)" d="M0 0h.768v5.853H0z">
  </path>
  <path id="Path_59" data-name="Path 59" class="cls-1" d="M89.6 69.9l1.151 5.757h.672l1.055-5.757h-.672l-.384 2.015-.288 1.919v.384h-.1l-.666-4.318z" transform="translate(388.892 86.82)">
  </path>
  <path id="Path_60" data-name="Path 60" class="cls-1" d="M96 69.9v5.757h2.111v-.672h-1.343v-1.919h1.151v-.672h-1.151v-1.822h1.343V69.9z" transform="translate(388.632 86.82)">
  </path>
  <path id="Path_61" data-name="Path 61" class="cls-1" d="M103.407 69.992a1.29 1.29 0 0 0-.864-.192 1.366 1.366 0 0 0-1.343 1.535c0 1.535 1.631 1.727 1.631 2.879 0 .48-.192.768-.672.768a1.09 1.09 0 0 1-.768-.288v.768a1.339 1.339 0 0 0 .864.288 1.366 1.366 0 0 0 1.343-1.535 2.179 2.179 0 0 0-.864-1.727l-.576-.672a.81.81 0 0 1-.192-.672.742.742 0 0 1 .672-.768.871.871 0 0 1 .672.288z" transform="translate(388.422 86.824)">
  </path>
 </g>
</svg>