<svg version="1.1" id="Layer_1" xmlns="http://www.w3.org/2000/svg" xmlns:xlink="http://www.w3.org/1999/xlink" x="0px" y="0px" viewBox="0 0 32.5 49.6" style="enable-background:new 0 0 32.5 49.6;" xml:space="preserve">
 <style type="text/css">
  .st0{fill-rule:evenodd;clip-rule:evenodd;}
	.st1{fill-rule:evenodd;clip-rule:evenodd;fill:#CE0924;}
	.st2{fill-rule:evenodd;clip-rule:evenodd;fill:#FFFFFF;}
 </style>
 <desc>
  Created with Sketch.
 </desc>
 <g id="_x31__x5F_00_x5F_Homepage">
  <g id="_x31__x5F_Homepage---1800" transform="translate(-277.000000, -18.000000)">
   <g id="logo" transform="translate(277.000000, 18.000000)">
    <path id="Fill-4" class="st0" d="M27.7,13.1c-0.4,0.6-1,1.2-1.5,1.5c0-1.2-0.2-2.1-0.5-2.8C26.9,12.3,27.7,13.1,27.7,13.1
				 M25.8,24.7c0.1-1.2,0.2-3.9,0.3-6.1c0.3,0.3,0.6,0.6,1.2,0.5c0.3-0.1,0.9-0.2,0.9-1.1c0-0.5-0.4-1.2-1.4-2.3
				c-0.1-0.1-0.1-0.1-0.2-0.2c0.6-0.6,1.6-1.5,2-2.4l0.1-0.2l-0.2-0.2c-1-0.8-2.3-1.6-2.9-1.9c-0.3-0.2-0.6-0.3-0.8-0.4
				c0,0,0.1-0.1,0.1-0.1c0.6-0.6,3-3.3,1.5-7c-1.5-3.6-5.3-3.6-7.3-3.1c-0.7,0.2-1.4,0.6-1.7,0.7c-1.3,0.9-2.3,2.2-2.6,3.7
				c-0.3,1.7,0.2,3.6,1.5,4.8c0.3,0.2,0.4,0.3,0.4,0.3c0,0,0-0.3,0.6-0.8c0.2-0.1,1.1-1,2.5-0.5c0.8,0.3,1.1,0.7,1.4,1.2
				c0.1,0.3,0.2,0.6,0.2,0.9c0,0,0,0-0.1,0c-1,0.6-2.1,2-1.8,5.3c0.3,3.9,0.6,7,0.7,8.8c-0.6,0-1.1,0.1-1.6,0.2
				c0.8-3.5,0.6-7.5-3.2-9.9c-3.7-2.3-8.8-1.6-12.1,1.2c-3.3,2.8-4,7.5-2.2,11.3c0.2,0.3,0.3,0.7,0.5,1c0.6,0.9,1.3,1.8,2.2,2.5
				c0.9,0.7,1.9,1.1,3,1.5c0.7,0.2,1.3,0.4,2,0.5c0.1,0,0.2-0.1,0.1-0.2c0-0.1-0.1-0.2-0.1-0.2c-0.2-0.3-0.3-0.7-0.4-1.1
				c-0.2-1.4,0.2-3,1.4-3.9c1.1-0.8,2.7-0.8,3.8,0c0.2,0.1,0.4,0.3,0.5,0.5c-0.7,1.4-0.6,2.9-0.4,3.9c0.1,0.7,0.3,0.9,0.4,1.2
				c0.6,1.8,2.2,3.8,2.8,4.5c0.8,1.1,3.2,3.6,4.1,4.5v3.7c-0.3,0.2-2.4,1.5-3.3,3.4c-0.1,0.2,0.1,0.4,0.3,0.4
				c1.6-0.2,3.5-0.4,5.4-0.4c1.9,0,3.7,0.1,5.2,0.4c0.2,0,0.4-0.2,0.3-0.4c-0.9-1.9-3-3.2-3.3-3.4v-3.7c0.8-0.9,3.1-3.4,3.9-4.5
				c0.5-0.7,2.7-3.5,3.1-5.7C32.8,29.7,32.4,24.9,25.8,24.7">
    </path>
    <path id="Fill-6" class="st1" d="M22.3,9.9L22.3,9.9c0,0.1,0,0.1,0,0.2l0,0c0,0,0,0,0,0c0.6-0.1,1.1-0.1,1.6,0l0,0
				c1-0.8,1.7-2,1.9-3.4c0.3-1.6-0.1-3-1-4.1c-1-1.1-2.2-1.6-3.7-1.6c-0.1,0-0.1,0-0.2,0c-1.5,0-2.4,0.4-3.4,1.2
				C17,2.6,16,3.6,15.9,5.2C15.8,6,15.9,6.6,16,7c0,0.1,0,0.1,0,0.2c0.1,0.3,0.1,0.6,0.5,1.1c0,0,0,0,0,0C17,7.8,17.5,7.5,18,7.4
				c0.4-0.1,0.8-0.2,1.2-0.1c0.2,0,1.2,0.1,2,0.7C22.2,8.8,22.2,9.5,22.3,9.9 M25.5,28.8c-1.7-0.2-2.5,1.4-2.5,1.4
				c0,0-0.7-1.6-2.5-1.4c-1.8,0.2-2.9,2.3-0.6,5.7c2.3,3.2,3,3.4,3,3.4h0h0l0,0c0,0,0.7-0.2,3-3.4C28.4,31.1,27.2,29,25.5,28.8
				 M15.8,16.7c-1.1-1-2.5-1.7-4-1.9c-3.9-0.7-8.2,1.1-9.9,4.7c-1.5,3.1-0.8,7.3,1.6,9.8c1.1,1.1,2.2,1.8,3.7,2.1c0,0-0.2-1,0-2
				c0.3-1.2,0.8-2.6,2.5-3.2c2.5-1,4,0.2,4.9,0.8c0.6-0.6,0.9-0.9,1.5-1.2c0.5-0.2,0.7-0.3,1.2-0.4c0.5-1.1,0.7-3.3,0.5-4.4
				C17.5,19.4,17.3,18.1,15.8,16.7 M27.4,17.6c0.1,0.2,0,0.5-0.2,0.6c-0.2,0.1-0.4,0-0.6-0.1l0,0c0,0,0,0,0,0c0,0,0,0,0,0
				c0,0,0,0,0,0c0-0.1-0.1-0.2-0.1-0.4c-0.1-0.3-0.2-0.9-0.3-1.2c0-0.1,0-0.1,0-0.1c0,0,0,0,0.1,0.1c0.2,0.2,0.7,0.7,0.8,0.9
				C27.3,17.4,27.3,17.5,27.4,17.6C27.4,17.6,27.4,17.6,27.4,17.6">
    </path>
    <path id="Fill-8" class="st2" d="M25.7,11.9c0.3,0.7,0.5,1.6,0.5,2.8c0.4-0.4,1.1-1,1.5-1.5C27.7,13.1,26.9,12.3,25.7,11.9
				 M23.8,13.3c0-0.4-0.3-0.7-0.7-0.7c-0.4,0-0.7,0.3-0.7,0.7s0.3,0.7,0.7,0.7C23.5,13.9,23.8,13.6,23.8,13.3 M24.6,13.3
				c0,0.8-0.7,1.5-1.5,1.5c-0.8,0-1.5-0.7-1.5-1.5c0-0.8,0.7-1.5,1.5-1.5C23.9,11.8,24.6,12.4,24.6,13.3 M22.7,16.4
				c0.1-0.3,0.5-0.4,0.7-0.3c0.2,0.1,0.3,0.4,0.3,0.6l0,0c0,0,0,0,0,0c0,0,0,0,0,0.1c0,0,0,0,0,0.1c-0.1,0.1-0.1,0.3-0.3,0.4
				c-0.2,0.3-0.7,0.8-0.9,1.1c-0.1,0.1-0.1,0.1-0.1,0.1c0,0,0,0,0-0.2c0.1-0.4,0.2-1.1,0.2-1.4C22.6,16.8,22.6,16.6,22.7,16.4
				C22.7,16.5,22.7,16.5,22.7,16.4">
    </path>
    <path id="Fill-10" class="st2" d="M12.8,16.4c-0.4,0-0.7,0.3-0.7,0.7c0,0.4,0.3,0.7,0.7,0.7c0.4,0,0.7-0.3,0.7-0.7
				C13.6,16.7,13.2,16.4,12.8,16.4">
    </path>
    <path id="Fill-12" class="st2" d="M14.9,19.7c0.4,0,0.7-0.3,0.7-0.7c0-0.4-0.3-0.7-0.7-0.7c-0.4,0-0.7,0.3-0.7,0.7
				C14.2,19.4,14.5,19.7,14.9,19.7">
    </path>
    <path id="Fill-14" class="st2" d="M15.6,20.8c-0.4,0-0.7,0.3-0.7,0.7c0,0.4,0.3,0.7,0.7,0.7c0.4,0,0.7-0.3,0.7-0.7
				C16.3,21.2,16,20.8,15.6,20.8">
    </path>
    <path id="Fill-16" class="st2" d="M5.2,27.6c-0.4,0-0.7,0.3-0.7,0.7c0,0.4,0.3,0.7,0.7,0.7c0.4,0,0.7-0.3,0.7-0.7
				C5.9,28,5.6,27.6,5.2,27.6">
    </path>
    <path id="Fill-18" class="st2" d="M3.6,25.5c-0.4,0-0.7,0.3-0.7,0.7c0,0.4,0.3,0.7,0.7,0.7c0.4,0,0.7-0.3,0.7-0.7
				C4.3,25.8,4,25.5,3.6,25.5">
    </path>
    <path id="Fill-20" class="st2" d="M3.7,23.6c0-0.4-0.3-0.7-0.7-0.7c-0.4,0-0.7,0.3-0.7,0.7c0,0.4,0.3,0.7,0.7,0.7
				C3.4,24.4,3.7,24,3.7,23.6">
    </path>
    <path id="Fill-22" class="st2" d="M3.3,21.7c0.4,0,0.7-0.3,0.7-0.7c0-0.4-0.3-0.7-0.7-0.7c-0.4,0-0.7,0.3-0.7,0.7
				C2.6,21.4,2.9,21.7,3.3,21.7">
    </path>
    <path id="Fill-24" class="st2" d="M4.7,19.4c0.4,0,0.7-0.3,0.7-0.7c0-0.4-0.3-0.7-0.7-0.7S4,18.3,4,18.7
				C4,19.1,4.3,19.4,4.7,19.4">
    </path>
    <path id="Fill-26" class="st2" d="M7.1,16.4c-0.4,0-0.7,0.3-0.7,0.7c0,0.4,0.3,0.7,0.7,0.7c0.4,0,0.7-0.3,0.7-0.7
				C7.9,16.7,7.5,16.4,7.1,16.4">
    </path>
    <path id="Fill-28" class="st2" d="M10,15.8c-0.4,0-0.7,0.3-0.7,0.7c0,0.4,0.3,0.7,0.7,0.7c0.4,0,0.7-0.3,0.7-0.7
				C10.7,16.1,10.4,15.8,10,15.8">
    </path>
    <path id="Fill-30" class="st2" d="M15.1,23.4c-0.4,0-0.7,0.3-0.7,0.7c0,0.4,0.3,0.7,0.7,0.7c0.4,0,0.7-0.3,0.7-0.7
				C15.8,23.8,15.5,23.4,15.1,23.4">
    </path>
   </g>
  </g>
 </g>
</svg>